<svg width="163" height="94" viewBox="0 0 163 94" fill="none" xmlns="http://www.w3.org/2000/svg">
  <mask id="mask0_636_101" style="mask-type:alpha" maskUnits="userSpaceOnUse" x="54" y="0" width="54" height="54">
    <g clip-path="url(#clip0_636_101)">
      <rect x="54" width="16" height="16" rx="2" fill="#D9D9D9"/>
      <path d="M73 2C73 0.89543 73.8954 0 75 0H104C106.209 0 108 1.79086 108 4V33C108 34.1046 107.105 35 106 35H75C73.8954 35 73 34.1046 73 33V2Z" fill="#D9D9D9"/>
      <rect x="54" y="19" width="16" height="16" rx="2" fill="#D9D9D9"/>
      <rect x="54" y="38" width="16" height="16" rx="2" fill="#D9D9D9"/>
      <rect x="73" y="38" width="16" height="16" rx="2" fill="#D9D9D9"/>
      <rect x="92" y="38" width="16" height="16" rx="2" fill="#D9D9D9"/>
    </g>
  </mask>
  <g mask="url(#mask0_636_101)">
    <rect x="54" width="54" height="54" fill="#1E7EBA"/>
  </g>
  <path d="M80.586 23.414C80.2109 23.789 80.0001 24.2976 80 24.828V27C80 27.2652 80.1054 27.5195 80.2929 27.7071C80.4804 27.8946 80.7348 28 81 28H84C84.2652 28 84.5196 27.8946 84.7071 27.7071C84.8946 27.5195 85 27.2652 85 27V26C85 25.7348 85.1054 25.4804 85.2929 25.2929C85.4804 25.1053 85.7348 25 86 25H87C87.2652 25 87.5196 24.8946 87.7071 24.7071C87.8946 24.5195 88 24.2652 88 24V23C88 22.7348 88.1054 22.4804 88.2929 22.2929C88.4804 22.1053 88.7348 22 89 22H89.172C89.7024 21.9999 90.211 21.7891 90.586 21.414L91.4 20.6C92.7898 21.0841 94.3028 21.0823 95.6915 20.5947C97.0801 20.1072 98.2622 19.1628 99.0444 17.9161C99.8265 16.6694 100.162 15.1942 99.9971 13.7317C99.8318 12.2693 99.1751 10.9062 98.1344 9.86555C97.0937 8.82486 95.7307 8.16816 94.2683 8.00287C92.8058 7.83757 91.3306 8.17347 90.0839 8.95562C88.8372 9.73776 87.8928 10.9198 87.4052 12.3085C86.9177 13.6971 86.9159 15.2101 87.4 16.6L80.586 23.414Z" stroke="white" stroke-width="2" stroke-linecap="round" stroke-linejoin="round"/>
  <path d="M94.5 14C94.7761 14 95 13.7761 95 13.5C95 13.2239 94.7761 13 94.5 13C94.2239 13 94 13.2239 94 13.5C94 13.7761 94.2239 14 94.5 14Z" fill="white" stroke="white" stroke-width="2" stroke-linecap="round" stroke-linejoin="round"/>
  <path d="M17.7188 84.668H22.1133C21.9727 86.3438 21.5039 87.8379 20.707 89.1504C19.9102 90.4512 18.791 91.4766 17.3496 92.2266C15.9082 92.9766 14.1562 93.3516 12.0938 93.3516C10.5117 93.3516 9.08789 93.0703 7.82227 92.5078C6.55664 91.9336 5.47266 91.125 4.57031 90.082C3.66797 89.0273 2.97656 87.7559 2.49609 86.2676C2.02734 84.7793 1.79297 83.1152 1.79297 81.2754V79.1484C1.79297 77.3086 2.0332 75.6445 2.51367 74.1562C3.00586 72.668 3.70898 71.3965 4.62305 70.3418C5.53711 69.2754 6.63281 68.4609 7.91016 67.8984C9.19922 67.3359 10.6465 67.0547 12.252 67.0547C14.291 67.0547 16.0137 67.4297 17.4199 68.1797C18.8262 68.9297 19.916 69.9668 20.6895 71.291C21.4746 72.6152 21.9551 74.1328 22.1309 75.8438H17.7363C17.6191 74.7422 17.3613 73.7988 16.9629 73.0137C16.5762 72.2285 16.002 71.6309 15.2402 71.2207C14.4785 70.7988 13.4824 70.5879 12.252 70.5879C11.2441 70.5879 10.3652 70.7754 9.61523 71.1504C8.86523 71.5254 8.23828 72.0762 7.73438 72.8027C7.23047 73.5293 6.84961 74.4258 6.5918 75.4922C6.3457 76.5469 6.22266 77.7539 6.22266 79.1133V81.2754C6.22266 82.5645 6.33398 83.7363 6.55664 84.791C6.79102 85.834 7.14258 86.7305 7.61133 87.4805C8.0918 88.2305 8.70117 88.8105 9.43945 89.2207C10.1777 89.6309 11.0625 89.8359 12.0938 89.8359C13.3477 89.8359 14.3613 89.6367 15.1348 89.2383C15.9199 88.8398 16.5117 88.2598 16.9102 87.498C17.3203 86.7246 17.5898 85.7812 17.7188 84.668ZM24.8906 83.7012V83.2969C24.8906 81.9258 25.0898 80.6543 25.4883 79.4824C25.8867 78.2988 26.4609 77.2734 27.2109 76.4062C27.9727 75.5273 28.8984 74.8477 29.9883 74.3672C31.0898 73.875 32.332 73.6289 33.7148 73.6289C35.1094 73.6289 36.3516 73.875 37.4414 74.3672C38.543 74.8477 39.4746 75.5273 40.2363 76.4062C40.998 77.2734 41.5781 78.2988 41.9766 79.4824C42.375 80.6543 42.5742 81.9258 42.5742 83.2969V83.7012C42.5742 85.0723 42.375 86.3438 41.9766 87.5156C41.5781 88.6875 40.998 89.7129 40.2363 90.5918C39.4746 91.459 38.5488 92.1387 37.459 92.6309C36.3691 93.1113 35.1328 93.3516 33.75 93.3516C32.3555 93.3516 31.1074 93.1113 30.0059 92.6309C28.916 92.1387 27.9902 91.459 27.2285 90.5918C26.4668 89.7129 25.8867 88.6875 25.4883 87.5156C25.0898 86.3438 24.8906 85.0723 24.8906 83.7012ZM29.127 83.2969V83.7012C29.127 84.5566 29.2148 85.3652 29.3906 86.127C29.5664 86.8887 29.8418 87.5566 30.2168 88.1309C30.5918 88.7051 31.0723 89.1562 31.6582 89.4844C32.2441 89.8125 32.9414 89.9766 33.75 89.9766C34.5352 89.9766 35.2148 89.8125 35.7891 89.4844C36.375 89.1562 36.8555 88.7051 37.2305 88.1309C37.6055 87.5566 37.8809 86.8887 38.0566 86.127C38.2441 85.3652 38.3379 84.5566 38.3379 83.7012V83.2969C38.3379 82.4531 38.2441 81.6562 38.0566 80.9062C37.8809 80.1445 37.5996 79.4707 37.2129 78.8848C36.8379 78.2988 36.3574 77.8418 35.7715 77.5137C35.1973 77.1738 34.5117 77.0039 33.7148 77.0039C32.918 77.0039 32.2266 77.1738 31.6406 77.5137C31.0664 77.8418 30.5918 78.2988 30.2168 78.8848C29.8418 79.4707 29.5664 80.1445 29.3906 80.9062C29.2148 81.6562 29.127 82.4531 29.127 83.2969ZM50.6602 66V93H46.4062V66H50.6602ZM59.8359 66V93H55.582V66H59.8359ZM72.8613 93.3516C71.4551 93.3516 70.1836 93.123 69.0469 92.666C67.9219 92.1973 66.9609 91.5469 66.1641 90.7148C65.3789 89.8828 64.7754 88.9043 64.3535 87.7793C63.9316 86.6543 63.7207 85.4414 63.7207 84.1406V83.4375C63.7207 81.9492 63.9375 80.6016 64.3711 79.3945C64.8047 78.1875 65.4082 77.1562 66.1816 76.3008C66.9551 75.4336 67.8691 74.7715 68.9238 74.3145C69.9785 73.8574 71.1211 73.6289 72.3516 73.6289C73.7109 73.6289 74.9004 73.8574 75.9199 74.3145C76.9395 74.7715 77.7832 75.416 78.4512 76.248C79.1309 77.0684 79.6348 78.0469 79.9629 79.1836C80.3027 80.3203 80.4727 81.5742 80.4727 82.9453V84.7559H65.7773V81.7148H76.2891V81.3809C76.2656 80.6191 76.1133 79.9043 75.832 79.2363C75.5625 78.5684 75.1465 78.0293 74.584 77.6191C74.0215 77.209 73.2715 77.0039 72.334 77.0039C71.6309 77.0039 71.0039 77.1562 70.4531 77.4609C69.9141 77.7539 69.4629 78.1816 69.0996 78.7441C68.7363 79.3066 68.4551 79.9863 68.2559 80.7832C68.0684 81.5684 67.9746 82.4531 67.9746 83.4375V84.1406C67.9746 84.9727 68.0859 85.7461 68.3086 86.4609C68.543 87.1641 68.8828 87.7793 69.3281 88.3066C69.7734 88.834 70.3125 89.25 70.9453 89.5547C71.5781 89.8477 72.2988 89.9941 73.1074 89.9941C74.127 89.9941 75.0352 89.7891 75.832 89.3789C76.6289 88.9688 77.3203 88.3887 77.9062 87.6387L80.1387 89.8008C79.7285 90.3984 79.1953 90.9727 78.5391 91.5234C77.8828 92.0625 77.0801 92.502 76.1309 92.8418C75.1934 93.1816 74.1035 93.3516 72.8613 93.3516ZM91.5469 89.9766C92.2383 89.9766 92.8594 89.8418 93.4102 89.5723C93.9727 89.291 94.4238 88.9043 94.7637 88.4121C95.1152 87.9199 95.3086 87.3516 95.3438 86.707H99.334C99.3105 87.9375 98.9473 89.0566 98.2441 90.0645C97.541 91.0723 96.6094 91.875 95.4492 92.4727C94.2891 93.0586 93.0059 93.3516 91.5996 93.3516C90.1465 93.3516 88.8809 93.1055 87.8027 92.6133C86.7246 92.1094 85.8281 91.418 85.1133 90.5391C84.3984 89.6602 83.8594 88.6465 83.4961 87.498C83.1445 86.3496 82.9688 85.1191 82.9688 83.8066V83.1914C82.9688 81.8789 83.1445 80.6484 83.4961 79.5C83.8594 78.3398 84.3984 77.3203 85.1133 76.4414C85.8281 75.5625 86.7246 74.877 87.8027 74.3848C88.8809 73.8809 90.1406 73.6289 91.582 73.6289C93.1055 73.6289 94.4414 73.9336 95.5898 74.543C96.7383 75.1406 97.6406 75.9785 98.2969 77.0566C98.9648 78.123 99.3105 79.3652 99.334 80.7832H95.3438C95.3086 80.0801 95.1328 79.4473 94.8164 78.8848C94.5117 78.3105 94.0781 77.8535 93.5156 77.5137C92.9648 77.1738 92.3027 77.0039 91.5293 77.0039C90.6738 77.0039 89.9648 77.1797 89.4023 77.5312C88.8398 77.8711 88.4004 78.3398 88.084 78.9375C87.7676 79.5234 87.5391 80.1855 87.3984 80.9238C87.2695 81.6504 87.2051 82.4062 87.2051 83.1914V83.8066C87.2051 84.5918 87.2695 85.3535 87.3984 86.0918C87.5273 86.8301 87.75 87.4922 88.0664 88.0781C88.3945 88.6523 88.8398 89.1152 89.4023 89.4668C89.9648 89.8066 90.6797 89.9766 91.5469 89.9766ZM111.305 73.9805V77.0742H100.582V73.9805H111.305ZM103.676 69.3223H107.912V87.7441C107.912 88.3301 107.994 88.7812 108.158 89.0977C108.334 89.4023 108.574 89.6074 108.879 89.7129C109.184 89.8184 109.541 89.8711 109.951 89.8711C110.244 89.8711 110.525 89.8535 110.795 89.8184C111.064 89.7832 111.281 89.748 111.445 89.7129L111.463 92.9473C111.111 93.0527 110.701 93.1465 110.232 93.2285C109.775 93.3105 109.248 93.3516 108.65 93.3516C107.678 93.3516 106.816 93.1816 106.066 92.8418C105.316 92.4902 104.73 91.9219 104.309 91.1367C103.887 90.3516 103.676 89.3086 103.676 88.0078V69.3223ZM119.109 73.9805V93H114.855V73.9805H119.109ZM114.574 68.9883C114.574 68.3438 114.785 67.8105 115.207 67.3887C115.641 66.9551 116.238 66.7383 117 66.7383C117.75 66.7383 118.342 66.9551 118.775 67.3887C119.209 67.8105 119.426 68.3438 119.426 68.9883C119.426 69.6211 119.209 70.1484 118.775 70.5703C118.342 70.9922 117.75 71.2031 117 71.2031C116.238 71.2031 115.641 70.9922 115.207 70.5703C114.785 70.1484 114.574 69.6211 114.574 68.9883ZM122.941 83.7012V83.2969C122.941 81.9258 123.141 80.6543 123.539 79.4824C123.938 78.2988 124.512 77.2734 125.262 76.4062C126.023 75.5273 126.949 74.8477 128.039 74.3672C129.141 73.875 130.383 73.6289 131.766 73.6289C133.16 73.6289 134.402 73.875 135.492 74.3672C136.594 74.8477 137.525 75.5273 138.287 76.4062C139.049 77.2734 139.629 78.2988 140.027 79.4824C140.426 80.6543 140.625 81.9258 140.625 83.2969V83.7012C140.625 85.0723 140.426 86.3438 140.027 87.5156C139.629 88.6875 139.049 89.7129 138.287 90.5918C137.525 91.459 136.6 92.1387 135.51 92.6309C134.42 93.1113 133.184 93.3516 131.801 93.3516C130.406 93.3516 129.158 93.1113 128.057 92.6309C126.967 92.1387 126.041 91.459 125.279 90.5918C124.518 89.7129 123.938 88.6875 123.539 87.5156C123.141 86.3438 122.941 85.0723 122.941 83.7012ZM127.178 83.2969V83.7012C127.178 84.5566 127.266 85.3652 127.441 86.127C127.617 86.8887 127.893 87.5566 128.268 88.1309C128.643 88.7051 129.123 89.1562 129.709 89.4844C130.295 89.8125 130.992 89.9766 131.801 89.9766C132.586 89.9766 133.266 89.8125 133.84 89.4844C134.426 89.1562 134.906 88.7051 135.281 88.1309C135.656 87.5566 135.932 86.8887 136.107 86.127C136.295 85.3652 136.389 84.5566 136.389 83.7012V83.2969C136.389 82.4531 136.295 81.6562 136.107 80.9062C135.932 80.1445 135.65 79.4707 135.264 78.8848C134.889 78.2988 134.408 77.8418 133.822 77.5137C133.248 77.1738 132.562 77.0039 131.766 77.0039C130.969 77.0039 130.277 77.1738 129.691 77.5137C129.117 77.8418 128.643 78.2988 128.268 78.8848C127.893 79.4707 127.617 80.1445 127.441 80.9062C127.266 81.6562 127.178 82.4531 127.178 83.2969ZM148.377 78.041V93H144.141V73.9805H148.131L148.377 78.041ZM147.621 82.7871L146.25 82.7695C146.262 81.4219 146.449 80.1855 146.812 79.0605C147.188 77.9355 147.703 76.9688 148.359 76.1602C149.027 75.3516 149.824 74.7305 150.75 74.2969C151.676 73.8516 152.707 73.6289 153.844 73.6289C154.758 73.6289 155.584 73.7578 156.322 74.0156C157.072 74.2617 157.711 74.666 158.238 75.2285C158.777 75.791 159.188 76.5234 159.469 77.4258C159.75 78.3164 159.891 79.4121 159.891 80.7129V93H155.637V80.6953C155.637 79.7812 155.502 79.0605 155.232 78.5332C154.975 77.9941 154.594 77.6133 154.09 77.3906C153.598 77.1562 152.982 77.0391 152.244 77.0391C151.518 77.0391 150.867 77.1914 150.293 77.4961C149.719 77.8008 149.232 78.2168 148.834 78.7441C148.447 79.2715 148.148 79.8809 147.938 80.5723C147.727 81.2637 147.621 82.002 147.621 82.7871Z" fill="#1E7EBA"/>
  <defs>
    <clipPath id="clip0_636_101">
      <rect width="54" height="54" fill="white" transform="translate(54)"/>
    </clipPath>
  </defs>
</svg>
